<svg viewBox="0 0 20 20" xmlns="http://www.w3.org/2000/svg" xmlns:xlink="http://www.w3.org/1999/xlink" width="20.000000" height="20.000000" fill="none" customFrame="#000000">
	<rect id="容器 1" width="20.000000" height="20.000000" x="0.000000" y="0.000000" />
	<g style="mix-blend-mode:normal">
		<path id="AI" d="M16.017 20L9.99994 20C9.45356 20 9.00922 19.582 8.99848 19.0645C7.57172 19.291 5.27143 19.6289 4.21527 19.6289C3.90424 19.6289 3.17572 19.6289 2.85541 19.0195C2.66693 18.6602 2.67279 18.2305 2.78607 16.1973C2.82318 15.5332 2.87934 14.5273 2.87641 13.9434C2.61225 13.8418 2.26947 13.6934 1.82416 13.4727C0.45209 12.7988 0.134707 12.4414 0.0292385 12.0176C-0.0747655 11.6016 0.104922 11.1797 0.46918 10.9453C0.766055 10.6504 1.74262 9.27734 2.55268 8.06445C2.63813 7.4707 2.93891 5.91016 3.87348 4.31836C4.97455 2.44336 7.1767 0.173828 11.4135 0.0078125C11.5952 0.00390625 11.7763 0 11.9526 0C14.4184 0 16.3696 0.685547 17.7519 2.04102C19.3066 3.56445 20.082 5.92188 19.9931 8.86133C19.9311 10.9023 18.0322 13.4961 17.4501 14.2422C17.2626 14.4863 17.1215 14.666 17.0185 14.7949L17.0185 19.0449C17.0185 19.5723 16.5698 20 16.017 20ZM6.02953 13.5507L8.11508 5.66991C8.22498 5.2546 8.60256 4.9843 9.00951 4.99829C9.41422 4.98708 9.7887 5.25678 9.89808 5.67009L11.9836 13.5509C12.1116 14.0345 11.8282 14.5316 11.3505 14.6612C10.8729 14.7908 10.382 14.5038 10.254 14.0202L9.76594 12.1759L8.24717 12.1759L7.75917 14.02C7.63119 14.5036 7.14025 14.7906 6.66262 14.661C6.185 14.5314 5.90155 14.0343 6.02953 13.5507ZM14.5527 13.7984C14.5527 14.2929 14.1518 14.6937 13.6574 14.6937C13.1629 14.6937 12.762 14.2929 12.762 13.7984L12.762 5.89337C12.762 5.3989 13.1629 4.99805 13.6574 4.99805C14.1518 4.99805 14.5527 5.3989 14.5527 5.89337L14.5527 13.7984ZM9.28614 10.3628L9.00655 9.30636L8.72697 10.3628L9.28614 10.3628Z" fill="rgb(63,102,245)" fill-rule="evenodd" />
	</g>
</svg>
