<svg viewBox="0 0 20 20.001" xmlns="http://www.w3.org/2000/svg" xmlns:xlink="http://www.w3.org/1999/xlink" width="20.000000" height="20.000977" fill="none">
	<rect id="全部分类" width="20.000000" height="20.000977" x="0.000000" y="0.000000" />
	<g style="mix-blend-mode:normal">
		<path id="联合 81" d="M3 0L6 0C7.65421 0 9 1.34579 9 3L9 6C9 7.65421 7.65421 9 6 9L3 9C1.34579 9 0 7.65421 0 6L0 3C0 1.34579 1.34579 0 3 0ZM14 0L17 0C18.6542 0 20 1.34579 20 3L20 6C20 7.65421 18.6542 9 17 9L14 9C12.3458 9 11 7.65421 11 6L11 3C11 1.34579 12.3458 0 14 0ZM17 7C17.5514 7 18 6.5514 18 6L18 3C18 2.4486 17.5514 2 17 2L14 2C13.4486 2 13 2.4486 13 3L13 6C13 6.5514 13.4486 7 14 7L17 7ZM3 11L6 11C7.65421 11 9 12.3458 9 14L9 17C9 18.6542 7.65421 20 6 20L3 20C1.34579 20 0 18.6542 0 17L0 14C0 12.3458 1.34579 11 3 11ZM14 11L17 11C18.6542 11 20 12.3458 20 14L20 17C20 18.6542 18.6542 20 17 20L14 20C12.3458 20 11 18.6542 11 17L11 14C11 12.3458 12.3458 11 14 11Z" fill="rgb(63,102,245)" fill-rule="evenodd" />
		<path id="联合 81" d="M3 0L6 0C7.65421 0 9 1.34579 9 3L9 6C9 7.65421 7.65421 9 6 9L3 9C1.34579 9 0 7.65421 0 6L0 3C0 1.34579 1.34579 0 3 0ZM14 0L17 0C18.6542 0 20 1.34579 20 3L20 6C20 7.65421 18.6542 9 17 9L14 9C12.3458 9 11 7.65421 11 6L11 3C11 1.34579 12.3458 0 14 0ZM17 7C17.5514 7 18 6.5514 18 6L18 3C18 2.4486 17.5514 2 17 2L14 2C13.4486 2 13 2.4486 13 3L13 6C13 6.5514 13.4486 7 14 7L17 7ZM3 11L6 11C7.65421 11 9 12.3458 9 14L9 17C9 18.6542 7.65421 20 6 20L3 20C1.34579 20 0 18.6542 0 17L0 14C0 12.3458 1.34579 11 3 11ZM14 11L17 11C18.6542 11 20 12.3458 20 14L20 17C20 18.6542 18.6542 20 17 20L14 20C12.3458 20 11 18.6542 11 17L11 14C11 12.3458 12.3458 11 14 11Z" fill-rule="evenodd" stroke="rgb(53,106,196)" stroke-opacity="0" stroke-width="2" />
	</g>
</svg>
