<svg viewBox="0 0 21.9531 22.4143" xmlns="http://www.w3.org/2000/svg" xmlns:xlink="http://www.w3.org/1999/xlink" width="21.953125" height="22.414307" fill="none" customFrame="#000000">
	<rect id="容器 4" width="20.000000" height="20.002930" x="1.000000" y="1.000000" />
	<g id="CICD">
		<g style="mix-blend-mode:normal">
			<rect id="矩形 1349" width="20.000000" height="20.000000" x="1.000000" y="1.002930" fill="rgb(177,98,98)" fill-opacity="0" />
			<rect id="矩形 1349" width="19.000000" height="19.000000" x="1.500000" y="1.502930" stroke="rgb(112,112,112)" stroke-opacity="0" stroke-width="1" />
		</g>
		<g style="mix-blend-mode:normal">
			<path id="联合 193" d="M15 3C15 1.89543 14.1046 1 13 1L9 1C7.89543 1 7 1.89543 7 3L7 5C7 6.10457 7.89543 7 9 7L13 7C14.1046 7 15 6.10458 15 5.00002L16.595 5.00002C16.6781 5.00662 17.2368 5.06241 17.7841 5.38182C18.5707 5.841 18.9531 6.61835 18.9531 7.7583C18.9531 8.56509 18.746 9.16283 18.3199 9.58566C17.9243 9.97827 17.4004 10.1589 17 10.2419L17 9L15 11L15 10C15 8.89543 14.1046 8 13 8L9 8C7.89543 8 7 8.89543 7 10L7 10.0046L5.54468 10.0046C5.18506 10.0046 3.44556 10.0706 2.19617 11.295C1.40247 12.0729 1 13.1193 1 14.4051C1 16.6838 2.18408 17.8234 3.17737 18.3781C3.89945 18.7813 4.61093 18.9237 5 18.9736L5 20L7 18L7 19C7 20.1046 7.89543 21 9 21L13 21C14.1046 21 15 20.1046 15 19L15 17C15 15.8954 14.1046 15 13 15L9 15C7.89543 15 7 15.8954 7 17L7 18L5 16L5 16.9451C4.75545 16.8923 4.42293 16.7919 4.10168 16.6028C3.36035 16.1663 3 15.4474 3 14.4051C3 13.6714 3.19238 13.1239 3.58813 12.7313C4.30115 12.0239 5.47656 12.0051 5.55383 12.0047L7.00001 12.0047C7.00254 13.1071 7.897 14 9 14L13 14C14.1046 14 15 13.1046 15 12L15 11L17 13L17 12.2708C17.6975 12.1799 18.8188 11.8964 19.71 11.0237C20.5349 10.216 20.9531 9.11737 20.9531 7.7583C20.9531 5.40895 19.7781 4.22992 18.7922 3.65454C17.7734 3.05986 16.7726 3.00505 16.6619 3.00076L15 3.00058L15 3Z" fill="rgb(63,102,245)" fill-rule="evenodd" />
			<path id="联合 193" d="M15 3C15 1.89543 14.1046 1 13 1L9 1C7.89543 1 7 1.89543 7 3L7 5C7 6.10457 7.89543 7 9 7L13 7C14.1046 7 15 6.10458 15 5.00002L16.595 5.00002C16.6781 5.00662 17.2368 5.06241 17.7841 5.38182C18.5707 5.841 18.9531 6.61835 18.9531 7.7583C18.9531 8.56509 18.746 9.16283 18.3199 9.58566C17.9243 9.97827 17.4004 10.1589 17 10.2419L17 9L15 11L15 10C15 8.89543 14.1046 8 13 8L9 8C7.89543 8 7 8.89543 7 10L7 10.0046L5.54468 10.0046C5.18506 10.0046 3.44556 10.0706 2.19617 11.295C1.40247 12.0729 1 13.1193 1 14.4051C1 16.6838 2.18408 17.8234 3.17737 18.3781C3.89945 18.7813 4.61093 18.9237 5 18.9736L5 20L7 18L7 19C7 20.1046 7.89543 21 9 21L13 21C14.1046 21 15 20.1046 15 19L15 17C15 15.8954 14.1046 15 13 15L9 15C7.89543 15 7 15.8954 7 17L7 18L5 16L5 16.9451C4.75545 16.8923 4.42293 16.7919 4.10168 16.6028C3.36035 16.1663 3 15.4474 3 14.4051C3 13.6714 3.19238 13.1239 3.58813 12.7313C4.30115 12.0239 5.47656 12.0051 5.55383 12.0047L7.00001 12.0047C7.00254 13.1071 7.897 14 9 14L13 14C14.1046 14 15 13.1046 15 12L15 11L17 13L17 12.2708C17.6975 12.1799 18.8188 11.8964 19.71 11.0237C20.5349 10.216 20.9531 9.11737 20.9531 7.7583C20.9531 5.40895 19.7781 4.22992 18.7922 3.65454C17.7734 3.05986 16.7726 3.00505 16.6619 3.00076L15 3.00058L15 3Z" fill-rule="evenodd" stroke="rgb(112,112,112)" stroke-opacity="0" stroke-width="2" />
		</g>
	</g>
</svg>
