<svg viewBox="0 0 20 20" xmlns="http://www.w3.org/2000/svg" xmlns:xlink="http://www.w3.org/1999/xlink" width="20.000000" height="20.000000" fill="none">
	<rect id="计算" width="20.000000" height="20.000000" x="0.000000" y="0.000000" />
	<g style="mix-blend-mode:normal">
		<path id="联合 186" d="M15.5 1C16.6046 1 17.5 1.89543 17.5 3C17.5 4.10457 16.6046 5 15.5 5C14.953 5 14.4572 4.78039 14.0962 4.42452C14.0436 4.43306 13.9896 4.4375 13.9346 4.4375L10.0693 4.4375L9.53178 6L10.7676 6C11.1134 5.4022 11.7597 5 12.5 5C13.6046 5 14.5 5.89543 14.5 7C14.5 8.10457 13.6046 9 12.5 9C11.7597 9 11.1134 8.5978 10.7676 8L8.8437 8L7.87744 10.8086C7.73828 11.2109 7.3584 11.4824 6.93164 11.4824L1.00684 11.4824C0.45459 11.4824 0.00683594 11.0352 0.00683594 10.4824C0.00683594 9.92969 0.45459 9.48242 1.00684 9.48242L6.21826 9.48242L6.72827 8L1 8C0.44772 8 0 7.55228 0 7C0 6.44772 0.44772 6 1 6L7.41635 6L8.41016 3.11133C8.54932 2.70898 8.9292 2.4375 9.35596 2.4375L13.5802 2.4375C13.8232 1.60678 14.5907 1 15.5 1ZM13.5 12C14.6046 12 15.5 12.8954 15.5 14C15.5 15.1046 14.6046 16 13.5 16C12.5681 16 11.785 15.3626 11.563 14.5L1 14.5C0.44772 14.5 0 14.0523 0 13.5C0 12.9477 0.44772 12.5 1 12.5L12.1771 12.5C12.5297 12.1888 12.9928 12 13.5 12ZM15.7127 18.8984L11.0127 18.8984C10.8608 18.8984 10.7114 18.8633 10.5752 18.7969L7.87695 17.4844L1.00684 17.4844C0.45459 17.4844 0.00683594 17.0371 0.00683594 16.4844C0.00683594 15.9316 0.45459 15.4844 1.00684 15.4844L8.10742 15.4844C8.25928 15.4844 8.40869 15.5195 8.54492 15.5859L11.2432 16.8984L15.8304 16.8984C16.1883 16.3571 16.8025 16 17.5 16C18.6046 16 19.5 16.8954 19.5 18C19.5 19.1046 18.6046 20 17.5 20C16.7185 20 16.0417 19.5518 15.7127 18.8984Z" fill="rgb(63,102,245)" fill-rule="evenodd" />
		<path id="联合 186" d="M15.5 1C16.6046 1 17.5 1.89543 17.5 3C17.5 4.10457 16.6046 5 15.5 5C14.953 5 14.4572 4.78039 14.0962 4.42452C14.0436 4.43306 13.9896 4.4375 13.9346 4.4375L10.0693 4.4375L9.53178 6L10.7676 6C11.1134 5.4022 11.7597 5 12.5 5C13.6046 5 14.5 5.89543 14.5 7C14.5 8.10457 13.6046 9 12.5 9C11.7597 9 11.1134 8.5978 10.7676 8L8.8437 8L7.87744 10.8086C7.73828 11.2109 7.3584 11.4824 6.93164 11.4824L1.00684 11.4824C0.45459 11.4824 0.00683594 11.0352 0.00683594 10.4824C0.00683594 9.92969 0.45459 9.48242 1.00684 9.48242L6.21826 9.48242L6.72827 8L1 8C0.44772 8 0 7.55228 0 7C0 6.44772 0.44772 6 1 6L7.41635 6L8.41016 3.11133C8.54932 2.70898 8.9292 2.4375 9.35596 2.4375L13.5802 2.4375C13.8232 1.60678 14.5907 1 15.5 1ZM13.5 12C14.6046 12 15.5 12.8954 15.5 14C15.5 15.1046 14.6046 16 13.5 16C12.5681 16 11.785 15.3626 11.563 14.5L1 14.5C0.44772 14.5 0 14.0523 0 13.5C0 12.9477 0.44772 12.5 1 12.5L12.1771 12.5C12.5297 12.1888 12.9928 12 13.5 12ZM15.7127 18.8984L11.0127 18.8984C10.8608 18.8984 10.7114 18.8633 10.5752 18.7969L7.87695 17.4844L1.00684 17.4844C0.45459 17.4844 0.00683594 17.0371 0.00683594 16.4844C0.00683594 15.9316 0.45459 15.4844 1.00684 15.4844L8.10742 15.4844C8.25928 15.4844 8.40869 15.5195 8.54492 15.5859L11.2432 16.8984L15.8304 16.8984C16.1883 16.3571 16.8025 16 17.5 16C18.6046 16 19.5 16.8954 19.5 18C19.5 19.1046 18.6046 20 17.5 20C16.7185 20 16.0417 19.5518 15.7127 18.8984Z" fill-rule="evenodd" stroke="rgb(112,112,112)" stroke-opacity="0" stroke-linecap="round" stroke-width="2" />
	</g>
</svg>
