<svg viewBox="0 0 20 20" xmlns="http://www.w3.org/2000/svg" xmlns:xlink="http://www.w3.org/1999/xlink" width="20.000000" height="20.000000" fill="none" customFrame="#000000">
	<rect id="容器 2" width="20.000000" height="20.000000" x="0.000000" y="0.000000" />
	<g style="mix-blend-mode:normal">
		<path id="数据库" d="M1 0L19 0C19.5523 0 20 0.44772 20 1L20 5C20 5.55228 19.5523 6 19 6L1 6C0.44772 6 0 5.55228 0 5L0 1C0 0.44772 0.44772 0 1 0ZM3 3C3 2.44772 3.44772 2 4 2C4.55228 2 5 2.44772 5 3C5 3.55228 4.55228 4 4 4C3.44772 4 3 3.55228 3 3ZM7 2C6.44772 2 6 2.44772 6 3C6 3.55228 6.44772 4 7 4C7.55228 4 8 3.55228 8 3C8 2.44772 7.55228 2 7 2ZM1 7L19 7C19.5523 7 20 7.44772 20 8L20 12C20 12.5523 19.5523 13 19 13L1 13C0.44772 13 0 12.5523 0 12L0 8C0 7.44772 0.44772 7 1 7ZM3 10C3 9.44772 3.44772 9 4 9C4.55228 9 5 9.44772 5 10C5 10.5523 4.55228 11 4 11C3.44772 11 3 10.5523 3 10ZM7 9C6.44772 9 6 9.44772 6 10C6 10.5523 6.44772 11 7 11C7.55228 11 8 10.5523 8 10C8 9.44772 7.55228 9 7 9ZM19 14L1 14C0.44772 14 0 14.4477 0 15L0 19C0 19.5523 0.44772 20 1 20L19 20C19.5523 20 20 19.5523 20 19L20 15C20 14.4477 19.5523 14 19 14ZM4 16C3.44772 16 3 16.4477 3 17C3 17.5523 3.44772 18 4 18C4.55228 18 5 17.5523 5 17C5 16.4477 4.55228 16 4 16ZM6 17C6 16.4477 6.44772 16 7 16C7.55228 16 8 16.4477 8 17C8 17.5523 7.55228 18 7 18C6.44772 18 6 17.5523 6 17Z" fill="rgb(63,102,245)" fill-rule="evenodd" />
	</g>
</svg>
