<svg viewBox="0 0 20 20.001" xmlns="http://www.w3.org/2000/svg" xmlns:xlink="http://www.w3.org/1999/xlink" width="20.000000" height="20.000977" fill="none" customFrame="#000000">
	<rect id="容器 3" width="20.000000" height="20.000977" x="0.000000" y="0.000000" />
	<g id="开发者工具">
		<g style="mix-blend-mode:normal">
			<rect id="矩形 831" width="20.000000" height="20.000000" x="0.000000" y="0.000977" fill="rgb(255,255,255)" fill-opacity="0" />
			<rect id="矩形 831" width="19.000000" height="19.000000" x="0.500000" y="0.500977" stroke="rgb(112,112,112)" stroke-opacity="0" stroke-width="1" />
		</g>
		<g style="mix-blend-mode:normal">
			<path id="联合 83" d="M3 0L17 0C18.6542 0 20 1.34579 20 3L20 13C20 14.6542 18.6542 16 17 16L3 16C1.34579 16 0 14.6542 0 13L0 3C0 1.34579 1.34579 0 3 0ZM9.36584 11.0993C9.0897 11.5776 8.47811 11.7415 7.99982 11.4653C7.52152 11.1892 7.35765 10.5776 7.63379 10.0993L10.6338 4.90314C10.9099 4.42485 11.5215 4.26098 11.9998 4.53712C12.4781 4.81326 12.642 5.42485 12.3658 5.90314L9.36584 11.0993ZM13.6721 5.17242C13.2815 5.56294 13.2815 6.19611 13.6721 6.58663L15.086 8.00061L13.6714 9.4152C13.2809 9.80572 13.2809 10.4389 13.6714 10.8294C14.062 11.2199 14.6951 11.2199 15.0857 10.8294L17.1889 8.72618C17.1952 8.7202 17.2014 8.71413 17.2076 8.70795C17.5981 8.31743 17.5981 7.68426 17.2076 7.29374L15.0863 5.17242C14.6957 4.78189 14.0626 4.78189 13.6721 5.17242ZM4.79276 5.17254C5.18329 4.78202 5.81645 4.78202 6.20698 5.17254C6.5975 5.56307 6.5975 6.19623 6.20698 6.58675L4.79288 8.00085L6.20734 9.41532C6.59787 9.80585 6.59787 10.439 6.20734 10.8295C5.81682 11.2201 5.18365 11.2201 4.79313 10.8295L2.68435 8.72076C2.68002 8.71658 2.67572 8.71235 2.67144 8.70807C2.28092 8.31755 2.28092 7.68439 2.67144 7.29386L4.79276 5.17254ZM16 19C16 18.4477 15.5523 18 15 18L5 18C4.44772 18 4 18.4477 4 19C4 19.5523 4.44772 20 5 20L15 20C15.5523 20 16 19.5523 16 19Z" fill="rgb(63,102,245)" fill-rule="evenodd" />
		</g>
	</g>
</svg>
