<svg viewBox="0 0 22 22" xmlns="http://www.w3.org/2000/svg" xmlns:xlink="http://www.w3.org/1999/xlink" width="22.000000" height="22.000000" fill="none" customFrame="#000000">
	<rect id="容器 6" width="20.000000" height="20.000977" x="1.000000" y="1.000000" />
	<g id="日志">
		<g style="mix-blend-mode:normal">
			<rect id="矩形 831" width="20.000000" height="20.000000" x="1.000000" y="1.000977" fill="rgb(255,255,255)" fill-opacity="0" />
			<rect id="矩形 831" width="19.000000" height="19.000000" x="1.500000" y="1.500977" stroke="rgb(112,112,112)" stroke-opacity="0" stroke-width="1" />
		</g>
		<g style="mix-blend-mode:normal">
			<path id="减去 21" d="M17.5 5C17.5 5.82843 16.8284 6.5 16 6.5C15.1716 6.5 14.5 5.82843 14.5 5L14.5 3L7.5 3L7.5 5C7.5 5.82843 6.82843 6.5 6 6.5C5.17157 6.5 4.5 5.82843 4.5 5L4.5 3L4 3C2.34579 3 1 4.34579 1 6L1 18C1 19.6542 2.34579 21 4 21L18 21C19.6542 21 21 19.6542 21 18L21 6C21 4.34579 19.6542 3 18 3L17.5 3L17.5 5ZM16 9C16.5523 9 17 9.44772 17 10C17 10.5523 16.5523 11 16 11L6 11C5.44772 11 5 10.5523 5 10C5 9.44772 5.44772 9 6 9L16 9ZM13 14C13 13.4477 12.5523 13 12 13L6 13C5.44772 13 5 13.4477 5 14C5 14.5523 5.44772 15 6 15L12 15C12.5523 15 13 14.5523 13 14Z" fill="rgb(63,102,245)" fill-rule="evenodd" />
			<path id="减去 21" d="M17.5 5C17.5 5.82843 16.8284 6.5 16 6.5C15.1716 6.5 14.5 5.82843 14.5 5L14.5 3L7.5 3L7.5 5C7.5 5.82843 6.82843 6.5 6 6.5C5.17157 6.5 4.5 5.82843 4.5 5L4.5 3L4 3C2.34579 3 1 4.34579 1 6L1 18C1 19.6542 2.34579 21 4 21L18 21C19.6542 21 21 19.6542 21 18L21 6C21 4.34579 19.6542 3 18 3L17.5 3L17.5 5ZM16 9C16.5523 9 17 9.44772 17 10C17 10.5523 16.5523 11 16 11L6 11C5.44772 11 5 10.5523 5 10C5 9.44772 5.44772 9 6 9L16 9ZM13 14C13 13.4477 12.5523 13 12 13L6 13C5.44772 13 5 13.4477 5 14C5 14.5523 5.44772 15 6 15L12 15C12.5523 15 13 14.5523 13 14Z" fill-rule="evenodd" stroke="rgb(53,106,196)" stroke-opacity="0" stroke-width="2" />
		</g>
		<g style="mix-blend-mode:normal">
			<rect id="矩形 853" width="5.000000" height="2.000000" x="0.000000" y="0.000000" rx="1.000000" fill="rgb(63,102,245)" transform="matrix(0,1,-1,0,7,1)" />
			<rect id="矩形 853" width="5.000000" height="2.000000" x="0.000000" y="0.000000" rx="1.000000" stroke="rgb(53,106,196)" stroke-opacity="0" stroke-width="2" transform="matrix(0,1,-1,0,7,1)" />
		</g>
		<g style="mix-blend-mode:normal">
			<rect id="矩形 854" width="5.000000" height="2.000000" x="0.000000" y="0.000000" rx="1.000000" fill="rgb(63,102,245)" transform="matrix(0,1,-1,0,17,1)" />
			<rect id="矩形 854" width="5.000000" height="2.000000" x="0.000000" y="0.000000" rx="1.000000" stroke="rgb(53,106,196)" stroke-opacity="0" stroke-width="2" transform="matrix(0,1,-1,0,17,1)" />
		</g>
	</g>
</svg>
