<svg viewBox="0 0 22 22" xmlns="http://www.w3.org/2000/svg" xmlns:xlink="http://www.w3.org/1999/xlink" width="22.000000" height="22.000000" fill="none" customFrame="#000000">
	<rect id="容器 5" width="20.000000" height="20.000977" x="1.000000" y="1.000000" />
	<g id="监控">
		<g style="mix-blend-mode:normal">
			<rect id="矩形 831" width="20.000000" height="20.000000" x="1.000000" y="1.000977" fill="rgb(255,255,255)" fill-opacity="0" />
			<rect id="矩形 831" width="19.000000" height="19.000000" x="1.500000" y="1.500977" stroke="rgb(112,112,112)" stroke-opacity="0" stroke-width="1" />
		</g>
		<g style="mix-blend-mode:normal">
			<path id="联合 83" d="M4 1L18 1C19.6542 1 21 2.34579 21 4L21 14C21 15.6542 19.6542 17 18 17L4 17C2.34579 17 1 15.6542 1 14L1 4C1 2.34579 2.34579 1 4 1ZM5 13.125C4.74414 13.125 4.48828 13.0273 4.29297 12.832C3.90234 12.4414 3.90234 11.8086 4.29297 11.418L7.59375 8.11719C7.98438 7.72656 8.61719 7.72656 9.00781 8.11719L11.0879 10.1963L15.2383 6.0459C15.6289 5.65527 16.2617 5.65527 16.6523 6.0459C17.043 6.43652 17.043 7.06934 16.6523 7.45996L11.7949 12.3174C11.4043 12.708 10.7715 12.708 10.3809 12.3174L8.30078 10.2383L5.70703 12.832C5.51172 13.0273 5.25586 13.125 5 13.125ZM17 20C17 19.4477 16.5523 19 16 19L6 19C5.44772 19 5 19.4477 5 20C5 20.5523 5.44772 21 6 21L16 21C16.5523 21 17 20.5523 17 20Z" fill="rgb(63,102,245)" fill-rule="evenodd" />
			<path id="联合 83" d="M4 1L18 1C19.6542 1 21 2.34579 21 4L21 14C21 15.6542 19.6542 17 18 17L4 17C2.34579 17 1 15.6542 1 14L1 4C1 2.34579 2.34579 1 4 1ZM5 13.125C4.74414 13.125 4.48828 13.0273 4.29297 12.832C3.90234 12.4414 3.90234 11.8086 4.29297 11.418L7.59375 8.11719C7.98438 7.72656 8.61719 7.72656 9.00781 8.11719L11.0879 10.1963L15.2383 6.0459C15.6289 5.65527 16.2617 5.65527 16.6523 6.0459C17.043 6.43652 17.043 7.06934 16.6523 7.45996L11.7949 12.3174C11.4043 12.708 10.7715 12.708 10.3809 12.3174L8.30078 10.2383L5.70703 12.832C5.51172 13.0273 5.25586 13.125 5 13.125ZM17 20C17 19.4477 16.5523 19 16 19L6 19C5.44772 19 5 19.4477 5 20C5 20.5523 5.44772 21 6 21L16 21C16.5523 21 17 20.5523 17 20Z" fill-rule="evenodd" stroke="rgb(53,106,196)" stroke-opacity="0" stroke-width="2" />
		</g>
	</g>
</svg>
