<svg viewBox="0 0 21.0055 21" xmlns="http://www.w3.org/2000/svg" xmlns:xlink="http://www.w3.org/1999/xlink" width="21.005493" height="21.000000" fill="none" customFrame="#000000">
	<rect id="容器 7" width="20.000000" height="20.000977" x="0.502808" y="0.500000" />
	<g id="网络">
		<g style="mix-blend-mode:normal">
			<rect id="矩形 831" width="20.000000" height="20.000000" x="0.502808" y="0.500977" fill="rgb(255,255,255)" fill-opacity="0" />
			<rect id="矩形 831" width="19.000000" height="19.000000" x="1.002808" y="1.000977" stroke="rgb(112,112,112)" stroke-opacity="0" stroke-width="1" />
		</g>
		<g style="mix-blend-mode:normal">
			<path id="减去 24" d="M20.4534 9.5C19.9516 4.44668 15.6881 0.5 10.5027 0.5C5.3174 0.5 1.05385 4.44668 0.552124 9.5L6.5225 9.5C6.72319 4.44668 8.42861 0.5 10.5027 0.5C12.5769 0.5 14.2823 4.44668 14.483 9.5L20.4534 9.5ZM12.4811 9.5C12.4037 7.71804 12.1206 6.03848 11.6646 4.68958C11.2174 3.36662 10.7394 2.76002 10.5027 2.55687C10.2661 2.76002 9.78807 3.36662 9.34088 4.68958C8.88492 6.03848 8.60178 7.71804 8.52437 9.5L12.4811 9.5ZM8.52437 11.5L12.4811 11.5C12.4037 13.282 12.1206 14.9615 11.6646 16.3104C11.2174 17.6334 10.7394 18.24 10.5027 18.4431C10.2661 18.24 9.78807 17.6334 9.34088 16.3104C8.88492 14.9615 8.60178 13.282 8.52437 11.5ZM6.5225 11.5L0.552124 11.5C1.05385 16.5533 5.3174 20.5 10.5027 20.5C15.6881 20.5 19.9516 16.5533 20.4534 11.5L14.483 11.5C14.2823 16.5533 12.5769 20.5 10.5027 20.5C8.42861 20.5 6.72319 16.5533 6.5225 11.5Z" fill="rgb(63,102,245)" fill-rule="evenodd" />
			<path id="减去 24" d="M20.4534 9.5C19.9516 4.44668 15.6881 0.5 10.5027 0.5C5.3174 0.5 1.05385 4.44668 0.552124 9.5L6.5225 9.5C6.72319 4.44668 8.42861 0.5 10.5027 0.5C12.5769 0.5 14.2823 4.44668 14.483 9.5L20.4534 9.5ZM12.4811 9.5C12.4037 7.71804 12.1206 6.03848 11.6646 4.68958C11.2174 3.36662 10.7394 2.76002 10.5027 2.55687C10.2661 2.76002 9.78807 3.36662 9.34088 4.68958C8.88492 6.03848 8.60178 7.71804 8.52437 9.5L12.4811 9.5ZM8.52437 11.5L12.4811 11.5C12.4037 13.282 12.1206 14.9615 11.6646 16.3104C11.2174 17.6334 10.7394 18.24 10.5027 18.4431C10.2661 18.24 9.78807 17.6334 9.34088 16.3104C8.88492 14.9615 8.60178 13.282 8.52437 11.5ZM6.5225 11.5L0.552124 11.5C1.05385 16.5533 5.3174 20.5 10.5027 20.5C15.6881 20.5 19.9516 16.5533 20.4534 11.5L14.483 11.5C14.2823 16.5533 12.5769 20.5 10.5027 20.5C8.42861 20.5 6.72319 16.5533 6.5225 11.5Z" fill-rule="evenodd" stroke="rgb(112,112,112)" stroke-opacity="0" stroke-width="1" />
		</g>
	</g>
</svg>
