<svg viewBox="0 0 22 22" xmlns="http://www.w3.org/2000/svg" xmlns:xlink="http://www.w3.org/1999/xlink" width="22.000000" height="22.000000" fill="none" customFrame="#000000">
	<rect id="容器 8" width="20.000000" height="20.000000" x="1.000000" y="1.000000" />
	<g style="mix-blend-mode:normal">
		<path id="可观测性" d="M4 1C4.55228 1 5 1.44772 5 2C5 2.55228 4.55228 3 4 3L3 3L3 4C3 4.55228 2.55228 5 2 5C1.44772 5 1 4.55228 1 4L1 2C1 1.44772 1.44772 1 2 1L4 1ZM18 3C17.4477 3 17 2.55228 17 2C17 1.44772 17.4477 1 18 1L20 1C20.5523 1 21 1.44772 21 2L21 4C21 4.55228 20.5523 5 20 5C19.4477 5 19 4.55228 19 4L19 3L18 3ZM21 11C21 7.68629 16.5228 5 11 5C5.47715 5 1 7.68629 1 11C1 14.3137 5.47715 17 11 17C16.5228 17 21 14.3137 21 11ZM16 11C16 8.23858 13.7614 6 11 6C8.23858 6 6 8.23858 6 11C6 13.7614 8.23858 16 11 16C13.7614 16 16 13.7614 16 11ZM11 8C12.6569 8 14 9.34315 14 11C14 12.6569 12.6569 14 11 14C9.34315 14 8 12.6569 8 11C8 9.34315 9.34315 8 11 8ZM1 18C1 17.4477 1.44772 17 2 17C2.55228 17 3 17.4477 3 18L3 19L4 19C4.55228 19 5 19.4477 5 20C5 20.5523 4.55228 21 4 21L2 21C1.44772 21 1 20.5523 1 20L1 18ZM19 18C19 17.4477 19.4477 17 20 17C20.5523 17 21 17.4477 21 18L21 20C21 20.5523 20.5523 21 20 21L18 21C17.4477 21 17 20.5523 17 20C17 19.4477 17.4477 19 18 19L19 19L19 18Z" fill="rgb(63,102,245)" fill-rule="evenodd" />
		<path id="可观测性" d="M4 1C4.55228 1 5 1.44772 5 2C5 2.55228 4.55228 3 4 3L3 3L3 4C3 4.55228 2.55228 5 2 5C1.44772 5 1 4.55228 1 4L1 2C1 1.44772 1.44772 1 2 1L4 1ZM18 3C17.4477 3 17 2.55228 17 2C17 1.44772 17.4477 1 18 1L20 1C20.5523 1 21 1.44772 21 2L21 4C21 4.55228 20.5523 5 20 5C19.4477 5 19 4.55228 19 4L19 3L18 3ZM11 5C16.5228 5 21 7.68629 21 11C21 14.3137 16.5228 17 11 17C5.47715 17 1 14.3137 1 11C1 7.68629 5.47715 5 11 5ZM16 11C16 8.23858 13.7614 6 11 6C8.23858 6 6 8.23858 6 11C6 13.7614 8.23858 16 11 16C13.7614 16 16 13.7614 16 11ZM4.44343 14.3851Q5.55988 15.055 6.98674 15.4606C6.90877 15.3902 6.83231 15.3176 6.75736 15.2426Q6.32127 14.8066 5.98856 14.3023L5.98822 14.3018L5.98797 14.3014Q5.68786 13.8463 5.47192 13.3358Q5.25706 12.8278 5.14002 12.2982Q5 11.6646 5 11Q5 10.3354 5.14002 9.70184L5.14002 9.70181L5.14003 9.70177Q5.25707 9.17219 5.47192 8.66422Q5.68796 8.15345 5.98822 7.69824L5.98823 7.69823L5.98824 7.69821Q6.32106 7.19366 6.75736 6.75736Q6.86978 6.64494 6.98674 6.53938Q5.55988 6.94498 4.44343 7.61485Q3.24052 8.3366 2.60318 9.2407C2.20106 9.81113 2 10.3976 2 11Q2 11.1071 2.00847 11.2135Q2.07147 12.005 2.60318 12.7593Q3.24052 13.6634 4.44343 14.3851ZM16.86 12.2981Q16.743 12.8278 16.5281 13.3358C16.2244 14.0537 15.7959 14.6893 15.2426 15.2426C15.1677 15.3176 15.0912 15.3902 15.0133 15.4606Q16.4401 15.055 17.5566 14.3851Q18.7595 13.6634 19.3968 12.7593Q19.9285 12.005 19.9915 11.2135L19.9916 11.2132L19.9916 11.2131Q20 11.1069 20 11C20 10.3976 19.7989 9.81113 19.3968 9.2407Q18.7595 8.3366 17.5566 7.61485Q16.4401 6.94498 15.0133 6.53938Q15.1302 6.64494 15.2426 6.75736C15.7959 7.31065 16.2244 7.94627 16.5281 8.66422Q16.7429 9.17217 16.86 9.70173L16.86 9.70176Q17 10.3354 17 11Q17 11.6645 16.86 12.2981ZM11 8C12.6569 8 14 9.34315 14 11C14 12.6569 12.6569 14 11 14C9.34315 14 8 12.6569 8 11C8 9.34315 9.34315 8 11 8ZM11 9C10.7283 9 10.4689 9.05225 10.2218 9.15676C9.98266 9.25791 9.77065 9.40092 9.58579 9.58579C9.40092 9.77065 9.25791 9.98266 9.15676 10.2218Q9.091 10.3773 9.05282 10.5393L9.05276 10.5395Q9 10.7635 9 11C9 11.2717 9.05225 11.5311 9.15676 11.7782C9.25791 12.0173 9.40092 12.2294 9.58579 12.4142C9.77065 12.5991 9.98266 12.7421 10.2218 12.8432Q10.3773 12.909 10.5392 12.9472L10.5393 12.9472Q10.7634 13 11 13C11.2717 13 11.5311 12.9477 11.7782 12.8432C12.0173 12.7421 12.2294 12.5991 12.4142 12.4142C12.5991 12.2294 12.7421 12.0173 12.8432 11.7782Q12.909 11.6227 12.9472 11.4607L12.9472 11.4607L12.9473 11.4602Q13 11.2363 13 11C13 10.7283 12.9477 10.4689 12.8432 10.2218C12.7421 9.98266 12.5991 9.77065 12.4142 9.58579C12.2294 9.40092 12.0173 9.25791 11.7782 9.15676Q11.6227 9.09099 11.4607 9.05281Q11.2366 9 11 9ZM1 18C1 17.4477 1.44772 17 2 17C2.55228 17 3 17.4477 3 18L3 19L4 19C4.55228 19 5 19.4477 5 20C5 20.5523 4.55228 21 4 21L2 21C1.44772 21 1 20.5523 1 20L1 18ZM19 18C19 17.4477 19.4477 17 20 17C20.5523 17 21 17.4477 21 18L21 20C21 20.5523 20.5523 21 20 21L18 21C17.4477 21 17 20.5523 17 20C17 19.4477 17.4477 19 18 19L19 19L19 18Z" fill="rgb(112,112,112)" fill-opacity="0" fill-rule="evenodd" />
	</g>
</svg>
