<svg viewBox="0 0 20 21" xmlns="http://www.w3.org/2000/svg" xmlns:xlink="http://www.w3.org/1999/xlink" width="20.000000" height="21.000000" fill="none" customFrame="#000000">
	<rect id="容器 9" width="20.000000" height="20.001953" x="0.000000" y="0.498047" />
	<g id="安全">
		<g style="mix-blend-mode:normal">
			<rect id="矩形 1400" width="20.000000" height="20.000000" x="0.000000" y="0.498047" fill="rgb(51,51,51)" fill-opacity="0" />
			<rect id="矩形 1400" width="19.000000" height="19.000000" x="0.500000" y="0.998047" stroke="rgb(112,112,112)" stroke-opacity="0" stroke-width="1" />
		</g>
		<g style="mix-blend-mode:normal">
			<path id="减去 84" d="M10.1924 0.539202L18.7188 4.17565C18.8898 4.24862 19 4.41141 19 4.59101L19 9.23201C19 13.9163 16.1274 18.1598 11.6816 20.0419C10.9534 20.3501 10.4034 20.5 10 20.5C9.59663 20.5 9.04655 20.3501 8.31842 20.0419C3.87259 18.1602 1 13.9168 1 9.23201L1 4.59101C0.999992 4.41139 1.11021 4.24862 1.28125 4.17565L9.80757 0.539202C9.93007 0.486933 10.0699 0.486933 10.1924 0.539202ZM10 6.49805C8.89543 6.49805 8 7.39348 8 8.49805C8 9.23833 8.4022 9.88468 9 10.2305L9 14.498C9 15.0503 9.44771 15.498 10 15.498C10.5523 15.498 11 15.0503 11 14.498L11 10.2305C11.5978 9.88468 12 9.23833 12 8.49805C12 7.39348 11.1046 6.49805 10 6.49805Z" fill="rgb(63,102,245)" fill-rule="evenodd" />
			<path id="减去 84" d="M10.1924 0.539202L18.7188 4.17565C18.8898 4.24862 19 4.41141 19 4.59101L19 9.23201C19 13.9163 16.1274 18.1598 11.6816 20.0419C10.9534 20.3501 10.4034 20.5 10 20.5C9.59663 20.5 9.04655 20.3501 8.31842 20.0419C3.87259 18.1602 1 13.9168 1 9.23201L1 4.59101C0.999992 4.41139 1.11021 4.24862 1.28125 4.17565L9.80757 0.539202C9.93007 0.486933 10.0699 0.486933 10.1924 0.539202ZM10 6.49805C8.89543 6.49805 8 7.39348 8 8.49805C8 9.23833 8.4022 9.88468 9 10.2305L9 14.498C9 15.0503 9.44771 15.498 10 15.498C10.5523 15.498 11 15.0503 11 14.498L11 10.2305C11.5978 9.88468 12 9.23833 12 8.49805C12 7.39348 11.1046 6.49805 10 6.49805Z" fill-rule="evenodd" stroke="rgb(112,112,112)" stroke-opacity="0" stroke-width="1" />
		</g>
	</g>
</svg>
