<svg viewBox="0 0 20 21" xmlns="http://www.w3.org/2000/svg" xmlns:xlink="http://www.w3.org/1999/xlink" width="20.000000" height="21.000000" fill="none" customFrame="#000000">
	<rect id="容器 10" width="20.000000" height="20.001953" x="0.000000" y="0.498047" />
	<g id="存储">
		<g style="mix-blend-mode:normal">
			<rect id="矩形 1400" width="20.000000" height="20.000000" x="0.000000" y="0.498047" fill="rgb(51,51,51)" fill-opacity="0" />
			<rect id="矩形 1400" width="19.000000" height="19.000000" x="0.500000" y="0.998047" stroke="rgb(112,112,112)" stroke-opacity="0" stroke-width="1" />
		</g>
		<g style="mix-blend-mode:normal">
			<path id="减去 83" d="M10 0.5C14.4183 0.5 18 2.29086 18 4.5L18 4.6338C17.5842 5.65879 16.6874 6.404 16.0919 6.80936C14.5153 7.88257 12.295 8.49808 10.0001 8.49808C7.70516 8.49808 5.48478 7.88257 3.90824 6.80936C3.31271 6.40396 2.41572 5.65864 2 4.6335L2 4.5C2 2.29086 5.58172 0.5 10 0.5ZM18 10.6338L18 7.89653C16.1149 9.48339 13.2315 10.4981 10.0001 10.4981C6.76852 10.4981 3.88513 9.48335 2 7.89643L2 10.6335C2.41572 11.6586 3.31271 12.404 3.90824 12.8094C5.48478 13.8826 7.70516 14.4981 10.0001 14.4981C12.295 14.4981 14.5153 13.8826 16.0919 12.8094C16.6874 12.404 17.5842 11.6588 18 10.6338ZM2 13.8964C3.88513 15.4833 6.76852 16.4981 10.0001 16.4981C13.2315 16.4981 16.1149 15.4834 18 13.8965L18 16.5C18 18.7091 14.4183 20.5 10 20.5C5.58172 20.5 2 18.7091 2 16.5L2 13.8964L2 13.8964Z" fill="rgb(63,102,245)" fill-rule="evenodd" />
			<path id="减去 83" d="M10 0.5C14.4183 0.5 18 2.29086 18 4.5L18 4.6338C17.5842 5.65879 16.6874 6.404 16.0919 6.80936C14.5153 7.88257 12.295 8.49808 10.0001 8.49808C7.70516 8.49808 5.48478 7.88257 3.90824 6.80936C3.31271 6.40396 2.41572 5.65864 2 4.6335L2 4.5C2 2.29086 5.58172 0.5 10 0.5ZM18 10.6338L18 7.89653C16.1149 9.48339 13.2315 10.4981 10.0001 10.4981C6.76852 10.4981 3.88513 9.48335 2 7.89643L2 10.6335C2.41572 11.6586 3.31271 12.404 3.90824 12.8094C5.48478 13.8826 7.70516 14.4981 10.0001 14.4981C12.295 14.4981 14.5153 13.8826 16.0919 12.8094C16.6874 12.404 17.5842 11.6588 18 10.6338ZM2 13.8964C3.88513 15.4833 6.76852 16.4981 10.0001 16.4981C13.2315 16.4981 16.1149 15.4834 18 13.8965L18 16.5C18 18.7091 14.4183 20.5 10 20.5C5.58172 20.5 2 18.7091 2 16.5L2 13.8964L2 13.8964Z" fill-rule="evenodd" stroke="rgb(112,112,112)" stroke-opacity="0" stroke-width="1" />
		</g>
	</g>
</svg>
